<svg xmlns="http://www.w3.org/2000/svg" xmlns:xlink="http://www.w3.org/1999/xlink" width="63.75" height="83.888" viewBox="0 0 63.75 83.888">
  <defs>
    <clipPath id="clip-path">
      <path id="Clip_6" data-name="Clip 6" d="M0,0H22.444V33.61H0Z" transform="translate(0.088 0.653)" fill="none"/>
    </clipPath>
  </defs>
  <g id="Group_28_Copy" data-name="Group 28 Copy" transform="translate(0.729 0.734)">
    <path id="Fill_1" data-name="Fill 1" d="M18.264,58.1c-.264-.979-.488-1.869-.744-2.75a9.529,9.529,0,0,0-4.807-5.965q-3.753-2.009-7.528-3.972a1.058,1.058,0,0,1-.617-.9,46.7,46.7,0,0,0-1-4.9A9.745,9.745,0,0,0,.5,34.965,1.682,1.682,0,0,1,0,33.83c.027-3.746,1.812-5.972,5.464-6.9,1.463-.371,2.939-.7,4.386-1.127a7.887,7.887,0,0,0,3.622-2.358,1.944,1.944,0,0,0,.437-2.132,8.007,8.007,0,0,0-1.182-2.231c-2.5-3.008-2.982-6.54-2.791-10.256a15.53,15.53,0,0,1,.344-2.68c1.3-5.629,8.354-8.023,13.15-4.48A7.4,7.4,0,0,1,26.5,6.682a17.551,17.551,0,0,1-.505,8.65,25.015,25.015,0,0,1-1.814,3.415c-.479.878-1.021,1.727-1.431,2.636a1.838,1.838,0,0,0,.44,2.051c1.545,1.792,3.633,2.489,5.833,3a30.686,30.686,0,0,1,3.6.973,6.523,6.523,0,0,1,4.046,6.877,1.061,1.061,0,0,1-.366.574c-2.754,2.283-3.71,5.416-4.083,8.785a2.316,2.316,0,0,1-1.438,2.161c-2.04.952-3.971,2.135-6,3.111A10.45,10.45,0,0,0,18.8,56.588c-.093.44-.216.875-.331,1.31-.012.042-.069.071-.2.2" transform="translate(12.777 15.044)" fill="#1b7695"/>
    <path id="Fill_3" data-name="Fill 3" d="M7.964,20.686c2.279-1.311,4.563-2.6,6.818-3.938.671-.4.926-1.927.5-2.98a8.772,8.772,0,0,0-.92-1.376c-.137-.209-.351-.456-.33-.668.178-1.826.352-3.655.624-5.468.323-2.149,1.765-3.566,3.383-4.835.443-.348.868-.719,1.321-1.053A1.947,1.947,0,0,1,21.518.288a2.009,2.009,0,0,1,.887,2.046Q21.658,6.9,20.946,11.47c-.417,2.643-.772,5.3-1.258,7.929a4.627,4.627,0,0,1-2.51,3.131c-2.146,1.228-4.328,2.4-6.427,3.7a9.606,9.606,0,0,0-4.815,6.941,4.033,4.033,0,0,1-.115.422L0,32.641c.026-.475.042-.95.08-1.422.125-1.529.3-3.055.38-4.585a26.277,26.277,0,0,1,1.27-6.9A4.585,4.585,0,0,1,4.061,17.1c2.551-1.341,5.093-2.7,7.643-4.039a1.789,1.789,0,0,1,2.4.837,1.751,1.751,0,0,1-.6,2.409c-1.715.957-3.45,1.876-5.175,2.813-.734.4-.808.667-.361,1.564" transform="translate(34.628 49.554)" fill="#1b7695"/>
    <g id="Group_7" data-name="Group 7" transform="translate(5.103 48.891)">
      <path id="Clip_6-2" data-name="Clip 6" d="M0,0H22.444V33.61H0Z" transform="translate(0.088 0.653)" fill="none"/>
      <g id="Group_7-2" data-name="Group 7" clip-path="url(#clip-path)">
        <path id="Fill_5" data-name="Fill 5" d="M14.563,20.572a1.06,1.06,0,0,0-.615-1.544c-1.64-.825-3.243-1.726-4.857-2.6A1.75,1.75,0,0,1,8.31,13.91a1.758,1.758,0,0,1,2.523-.765c2.121,1.121,4.189,2.363,6.379,3.328a6.494,6.494,0,0,1,4.061,5.4c.306,2.145.541,4.3.779,6.455.156,1.417.26,2.841.392,4.313l-5.882.968c-.547-4.159-3.176-6.6-6.665-8.409-1.766-.913-3.48-1.935-5.167-2.988a5.066,5.066,0,0,1-2.23-3.84C1.873,14.137,1.191,9.909.533,5.677.361,4.569.185,3.461.03,2.349A1.864,1.864,0,0,1,.963.262,1.911,1.911,0,0,1,3.238.519C4.026,1.174,4.8,1.852,5.591,2.5,7.3,3.88,7.762,5.835,8.035,7.856c.171,1.265.242,2.543.321,3.819a.888.888,0,0,1-.248.682c-1.392.973-1.292,2.826-.915,3.968a1.05,1.05,0,0,0,.483.471q3.289,1.879,6.594,3.73a.893.893,0,0,0,.293.046" transform="translate(0.088 0.653)" fill="#1b7695"/>
      </g>
    </g>
    <path id="Fill_8" data-name="Fill 8" d="M.968,5.577A1.052,1.052,0,0,1,.1,5,.856.856,0,0,1,.259,3.98c.441-.462.9-.908,1.352-1.36Q2.74,1.49,3.87.361a.94.94,0,0,1,1.383-.1.923.923,0,0,1-.068,1.382C4.01,2.825,2.834,4.009,1.642,5.177a3.257,3.257,0,0,1-.674.4" transform="translate(47.919 8.863)" fill="#249ec6"/>
    <path id="Stroke_10" data-name="Stroke 10" d="M.968,5.577A1.052,1.052,0,0,1,.1,5,.856.856,0,0,1,.259,3.98c.441-.462.9-.908,1.352-1.36Q2.74,1.49,3.87.361a.94.94,0,0,1,1.383-.1.923.923,0,0,1-.068,1.382C4.01,2.825,2.834,4.009,1.642,5.177A3.257,3.257,0,0,1,.968,5.577Z" transform="translate(47.919 8.863)" fill="#1b7695" stroke="#1b7695" stroke-miterlimit="10" stroke-width="1.458"/>
    <path id="Fill_12" data-name="Fill 12" d="M0,.949A1.032,1.032,0,0,1,.52.124a.879.879,0,0,1,.943.028,1.837,1.837,0,0,1,.3.252c1.147,1.145,2.3,2.287,3.434,3.442a1.377,1.377,0,0,1,.345.56.866.866,0,0,1-.425,1,.947.947,0,0,1-1.137-.188C3.134,4.385,2.3,3.546,1.464,2.709,1.1,2.341.712,1.988.367,1.6A3.382,3.382,0,0,1,0,.949" transform="translate(8.807 8.857)" fill="#249ec6"/>
    <path id="Stroke_14" data-name="Stroke 14" d="M0,.949A1.032,1.032,0,0,1,.52.124a.879.879,0,0,1,.943.028,1.837,1.837,0,0,1,.3.252c1.147,1.145,2.3,2.287,3.434,3.442a1.377,1.377,0,0,1,.345.56.866.866,0,0,1-.425,1,.947.947,0,0,1-1.137-.188C3.134,4.385,2.3,3.546,1.464,2.709,1.1,2.341.712,1.988.367,1.6A3.382,3.382,0,0,1,0,.949Z" transform="translate(8.807 8.857)" fill="#1b7695" stroke="#1b7695" stroke-miterlimit="10" stroke-width="1.458"/>
    <path id="Fill_16" data-name="Fill 16" d="M3.5,1.829c-.828,0-1.657,0-2.485,0A.917.917,0,1,1,1,0Q3.537,0,6.076,0a.9.9,0,0,1,.969.942.883.883,0,0,1-.984.881c-.852,0-1.7,0-2.557,0Z" transform="translate(0 30.228)" fill="#249ec6"/>
    <path id="Stroke_18" data-name="Stroke 18" d="M3.5,1.829c-.828,0-1.657,0-2.485,0A.917.917,0,1,1,1,0Q3.537,0,6.076,0a.9.9,0,0,1,.969.942.883.883,0,0,1-.984.881c-.852,0-1.7,0-2.557,0Z" transform="translate(0 30.228)" fill="#1b7695" stroke="#1b7695" stroke-miterlimit="10" stroke-width="1.458"/>
    <path id="Fill_20" data-name="Fill 20" d="M3.515,1.827c-.841,0-1.68,0-2.521,0A.9.9,0,0,1,0,.914.916.916,0,0,1,1,0Q3.525,0,6.046,0a.9.9,0,0,1,.988.921.89.89,0,0,1-1,.9c-.841,0-1.68,0-2.521,0" transform="translate(55.257 30.229)" fill="#249ec6"/>
    <path id="Stroke_22" data-name="Stroke 22" d="M3.515,1.827c-.841,0-1.68,0-2.521,0A.9.9,0,0,1,0,.914.916.916,0,0,1,1,0Q3.525,0,6.046,0a.9.9,0,0,1,.988.921.89.89,0,0,1-1,.9C5.2,1.829,4.356,1.827,3.515,1.827Z" transform="translate(55.257 30.229)" fill="#1b7695" stroke="#1b7695" stroke-miterlimit="10" stroke-width="1.458"/>
    <path id="Fill_24" data-name="Fill 24" d="M1.83,3.551c0,.84,0,1.68,0,2.52a.889.889,0,0,1-.889.976A.9.9,0,0,1,.008,6.1C-.007,5.6,0,5.105,0,4.608c0-1.2-.006-2.39,0-3.585a.931.931,0,0,1,1.119-1,.883.883,0,0,1,.7.9c0,.876,0,1.751,0,2.627" transform="translate(30.227 0)" fill="#249ec6"/>
    <path id="Stroke_26" data-name="Stroke 26" d="M1.83,3.551c0,.84,0,1.68,0,2.52a.889.889,0,0,1-.889.976A.9.9,0,0,1,.008,6.1C-.007,5.6,0,5.105,0,4.608c0-1.2-.006-2.39,0-3.585a.931.931,0,0,1,1.119-1,.883.883,0,0,1,.7.9C1.833,1.8,1.83,2.676,1.83,3.551Z" transform="translate(30.227 0)" fill="#1b7695" stroke="#1b7695" stroke-miterlimit="10" stroke-width="1.458"/>
  </g>
</svg>
