<svg xmlns="http://www.w3.org/2000/svg" xmlns:xlink="http://www.w3.org/1999/xlink" width="68.25" height="61.007" viewBox="0 0 68.25 61.007">
  <defs>
    <clipPath id="clip-path">
      <path id="Clip_2" data-name="Clip 2" d="M0,0H68.246V61.006H0Z" transform="translate(0 0.194)" fill="none"/>
    </clipPath>
  </defs>
  <g id="Group_17_Copy" data-name="Group 17 Copy" transform="translate(0.004 -0.612)">
    <g id="Group_3" data-name="Group 3" transform="translate(0 0.418)">
      <path id="Clip_2-2" data-name="Clip 2" d="M0,0H68.246V61.006H0Z" transform="translate(0 0.194)" fill="none"/>
      <g id="Group_3-2" data-name="Group 3" clip-path="url(#clip-path)">
        <path id="Fill_1" data-name="Fill 1" d="M20.782,61.006h0a2.869,2.869,0,0,1-1.857-.773C17.3,58.825,15.647,57.387,14.053,56l-.022-.02L12.11,54.3Q6.717,49.6,1.325,44.9c-.178-.154-.347-.308-.5-.457A2.461,2.461,0,0,1,.65,40.934c.981-1.152,2.033-2.359,3.214-3.692a2.665,2.665,0,0,1,1.97-1.053,2.854,2.854,0,0,1,1.735.7.743.743,0,0,0,.432.2c.148,0,.278-.092.423-.3s.314-.423.473-.625l.074-.094c.3-.381.451-.573.632-.573.161,0,.352.155.7.437l.01.008c.217.176.317.319.324.464a.542.542,0,0,1-.2.4.545.545,0,0,0-.063.082l-.027.039c-1.063,1.435-1.063,1.435.3,2.626l3.673,3.2c3.074,2.68,6.253,5.451,9.371,8.187a.81.81,0,0,0,.5.259c.16,0,.313-.1.528-.33,1.17-1.278,2.394-2.527,3.437-3.58,1.526-1.542,3.463-2.149,5.9-2.586a41.46,41.46,0,0,0,9-2.664,38.493,38.493,0,0,0,8.1-4.718,8.243,8.243,0,0,0,2.332-3.508l.072-.163a16.553,16.553,0,0,0,1.716-6.653,2.06,2.06,0,0,0-1.042-1.9c-.368.371-.716.771-1.053,1.158a10.526,10.526,0,0,1-2.511,2.319l-.24-.108c.021-.088.036-.182.05-.272a1.571,1.571,0,0,1,.16-.561c.542-.905,1.147-1.861,1.848-2.922a12.1,12.1,0,0,0,2.034-4.49,2.743,2.743,0,0,0-.972-2.695.783.783,0,0,0-.505-.248.85.85,0,0,0-.57.318c-.74.735-1.525,1.449-2.284,2.14l-.517.471a1.444,1.444,0,0,1-.509.313,1.665,1.665,0,0,1-.44.053c-.064,0-.13,0-.194.009a1.944,1.944,0,0,0,0-.2.693.693,0,0,1,.061-.4c.6-.839,1.322-1.823,2.08-2.756.3-.366.623-.718.938-1.059s.622-.671.91-1.024a3.016,3.016,0,0,0,.641-2.412,2.633,2.633,0,0,0-1.19-1.822,1.793,1.793,0,0,0-.953-.295,1.953,1.953,0,0,0-.825.2c-1.512.7-3.05,1.34-4.759,2.048a2.183,2.183,0,0,1-.63.121c-.1.009-.2.019-.295.033l-.08-.108-.08-.108c.08-.092.155-.193.229-.291a2.118,2.118,0,0,1,.535-.563c1.661-1.024,3.02-1.819,4.276-2.5a2.919,2.919,0,0,0,1.561-2.986,2.978,2.978,0,0,0-2.358-2.775,5.594,5.594,0,0,0-1.046-.1,10.351,10.351,0,0,0-2.881.515,114.234,114.234,0,0,0-16.313,6.34,21.489,21.489,0,0,1-3.7,1.2l-.074.019a4.133,4.133,0,0,1-1.032.129,5.956,5.956,0,0,1-2.213-.477,1.992,1.992,0,0,1-1.206-.994A1.923,1.923,0,0,1,20.256,8.8a3.786,3.786,0,0,1,.778-1.18c1.717-1.714,3.548-3.531,5.394-5.251A12.8,12.8,0,0,1,28.782.643a4.339,4.339,0,0,1,4.842.2c1.383.931,2.7,1.971,3.967,2.976A1.415,1.415,0,0,0,38.5,4.2a1.731,1.731,0,0,0,.5-.083c.46-.139.927-.282,1.38-.421a55.609,55.609,0,0,1,6.23-1.656,6.506,6.506,0,0,1,1.174-.11,4.725,4.725,0,0,1,3.493,1.406,5.107,5.107,0,0,1,1.262,3.91,4.688,4.688,0,0,1-.31,1.31c-.161.444,0,.638.347.84a4.343,4.343,0,0,1,1.811,5.717.86.86,0,0,0,.251,1.25c1.588,1.33,1.969,3.179,1.134,5.494a.8.8,0,0,1-.061.138,1.765,1.765,0,0,0,.372,2.632,2.831,2.831,0,0,1,.774,2.581,40.927,40.927,0,0,1-.789,4.353,1.245,1.245,0,0,0,.275,1.282c.429.5.857,1.01,1.271,1.505.551.66,1.121,1.342,1.7,2a.814.814,0,0,1,.27.563.844.844,0,0,1-.361.539C53.571,42.311,47.906,47.215,43.04,51.43a.9.9,0,0,1-.525.281.515.515,0,0,1-.374-.2A9.642,9.642,0,0,0,37.957,49.1a25.343,25.343,0,0,1-4.19-1.848,2.993,2.993,0,0,0-1.469-.437,2.317,2.317,0,0,0-1.464.544c-1.061.846-2.077,1.785-3.06,2.694-.373.345-.758.7-1.14,1.046a1.541,1.541,0,0,0-.187.219,1.4,1.4,0,0,1-.207.236,1.186,1.186,0,0,0-.513.781,1.234,1.234,0,0,0,.425.873,2.162,2.162,0,0,1-.054,2.85c-1.362,1.651-2.525,2.985-3.661,4.2A2.237,2.237,0,0,1,20.782,61.006ZM47.2,60.757c-.445,0-.866-.281-1.5-1-1.03-1.165-2.045-2.329-3.018-3.46-.948-1.1-.912-1.661.168-2.6,2.6-2.258,5.245-4.546,7.805-6.758q1.9-1.645,3.8-3.287L57.1,41.361l.009-.007c1.442-1.249,2.934-2.541,4.4-3.808a2.415,2.415,0,0,1,1.436-.779c.42,0,.826.276,1.446.985l.668.76c.808.918,1.643,1.866,2.443,2.818a4.31,4.31,0,0,1,.485.789c.079.151.161.306.256.472-.112.146-.216.3-.316.444a4.372,4.372,0,0,1-.685.844c-2.555,2.234-5.166,4.49-7.692,6.672l-2.6,2.248c-2.465,2.133-5.372,4.65-8.248,7.143A2.507,2.507,0,0,1,47.2,60.757ZM14.685,36.206h0a4.005,4.005,0,0,1-1.118-.174,6.382,6.382,0,0,1-4.536-3.718,4.744,4.744,0,0,1,.922-4.9c.061.056.119.1.171.147a1.254,1.254,0,0,1,.242.238,16.376,16.376,0,0,0,6.515,5.415c.582.288.678.57.394,1.158A2.8,2.8,0,0,1,14.685,36.206Zm5.6-3.536a5.42,5.42,0,0,1-2.023-.338,16.117,16.117,0,0,1-4.049-2.327,13.1,13.1,0,0,1-3.077-3.53,5.681,5.681,0,0,1-.458-5.195,4.734,4.734,0,0,1,.452-.81c.1-.151.2-.308.3-.487.107.143.2.264.283.372.144.188.258.336.363.489a17.7,17.7,0,0,0,4.038,4.209,16.9,16.9,0,0,0,5.232,2.578.654.654,0,0,1,.071.023,4.312,4.312,0,0,0,.448.119c.342.078.7.159.8.364a4.083,4.083,0,0,1,.357,1.881,2.36,2.36,0,0,1-1.979,2.62C20.783,32.659,20.526,32.67,20.281,32.67Zm2.749-6.089h0a11.3,11.3,0,0,1-4.383-1.514,13.978,13.978,0,0,1-6.257-6.474,3.312,3.312,0,0,1-.055-2.589,3.712,3.712,0,0,1,1.762-1.96,1.013,1.013,0,0,1,.452-.138.561.561,0,0,1,.491.351,10.145,10.145,0,0,0,3.417,3.428q.307.2.612.409a16.679,16.679,0,0,0,4.778,2.5l.019,0a.114.114,0,0,1,.052.019,4.535,4.535,0,0,1,1.6,3.352,2.355,2.355,0,0,1-1.56,2.351,3.238,3.238,0,0,1-.715.208c-.081.016-.151.031-.21.046Zm1.417-7.314a2.9,2.9,0,0,1-1.43-.4,41.388,41.388,0,0,1-4.987-3.2c-2.067-1.594-2.934-3.524-2.576-5.734a3.838,3.838,0,0,1,3.473-2.83,2.027,2.027,0,0,1,.641.1c-.072.154-.145.3-.215.446-.15.307-.29.593-.408.889a2.97,2.97,0,0,0,1.468,3.884,6.5,6.5,0,0,0,3.033.677,10.963,10.963,0,0,0,1.224-.073,2.263,2.263,0,0,1,.247-.014,1.186,1.186,0,0,1,1.119.666c.067.117.136.233.205.349a3.663,3.663,0,0,1,.734,3.141A2.737,2.737,0,0,1,24.447,19.267Z" transform="translate(0 0.194)" fill="#1b7695"/>
      </g>
    </g>
    <g id="Group_6" data-name="Group 6" transform="translate(0 0.418)">
      <path id="Fill_4" data-name="Fill 4" d="M20.783,61.006a2.871,2.871,0,0,1-1.858-.773c-1.578-1.363-3.174-2.756-4.718-4.1l-.014-.012L12.11,54.3,8.354,51.027l-.169-.147L1.325,44.9c-.163-.143-.336-.3-.5-.458A2.462,2.462,0,0,1,.65,40.933c.971-1.14,2.022-2.348,3.213-3.692a2.669,2.669,0,0,1,1.971-1.052,2.854,2.854,0,0,1,1.735.7.742.742,0,0,0,.432.2c.148,0,.279-.092.423-.3s.314-.423.473-.625l.074-.094c.312-.4.457-.572.631-.572s.352.155.7.436l.01.008c.216.176.316.319.323.464a.544.544,0,0,1-.2.4.5.5,0,0,0-.062.079l-.028.041c-1.063,1.437-1.063,1.437.3,2.627l3.673,3.2c3.073,2.679,6.251,5.449,9.371,8.187a.81.81,0,0,0,.5.259c.16,0,.313-.1.528-.331,1.184-1.291,2.4-2.534,3.437-3.579,1.526-1.542,3.463-2.149,5.9-2.586a41.467,41.467,0,0,0,9-2.664,38.477,38.477,0,0,0,8.1-4.718,8.243,8.243,0,0,0,2.332-3.508l.072-.163a16.575,16.575,0,0,0,1.716-6.652,2.064,2.064,0,0,0-1.043-1.9c-.367.37-.715.77-1.051,1.156a10.555,10.555,0,0,1-2.512,2.323l-.181-.082-.061-.027c.021-.088.036-.182.05-.272a1.594,1.594,0,0,1,.16-.561c.56-.931,1.164-1.887,1.848-2.921a12.115,12.115,0,0,0,2.035-4.49,2.746,2.746,0,0,0-.972-2.7.785.785,0,0,0-.506-.248.849.849,0,0,0-.57.317c-.739.736-1.523,1.449-2.281,2.139l-.52.473a1.441,1.441,0,0,1-.51.313,1.607,1.607,0,0,1-.438.052c-.065,0-.132,0-.2.009a1.876,1.876,0,0,0,0-.2.682.682,0,0,1,.062-.4c.6-.841,1.323-1.826,2.079-2.758.3-.364.62-.714.934-1.053s.624-.674.915-1.03a3.018,3.018,0,0,0,.641-2.413,2.632,2.632,0,0,0-1.19-1.821,1.8,1.8,0,0,0-.954-.3,1.951,1.951,0,0,0-.824.2c-1.58.729-3.2,1.4-4.759,2.049a2.2,2.2,0,0,1-.623.12c-.1.01-.2.02-.3.035l-.08-.109-.08-.109c.078-.091.153-.191.225-.288a2.138,2.138,0,0,1,.537-.567c1.69-1.041,3.009-1.813,4.277-2.5a2.923,2.923,0,0,0,1.561-2.987,2.982,2.982,0,0,0-2.359-2.776,5.592,5.592,0,0,0-1.045-.1,10.139,10.139,0,0,0-2.882.515,114.37,114.37,0,0,0-16.313,6.341,21.647,21.647,0,0,1-3.733,1.21l-.045.012a4.116,4.116,0,0,1-1.032.129,5.967,5.967,0,0,1-2.212-.477,1.992,1.992,0,0,1-1.207-.994A1.923,1.923,0,0,1,20.256,8.8a3.792,3.792,0,0,1,.778-1.179c1.8-1.8,3.571-3.552,5.393-5.251A12.8,12.8,0,0,1,28.782.644a4.339,4.339,0,0,1,4.842.2c1.391.935,2.7,1.973,3.966,2.977A1.42,1.42,0,0,0,38.5,4.2a1.727,1.727,0,0,0,.5-.083c.452-.136.912-.278,1.356-.415a55.96,55.96,0,0,1,6.253-1.663,6.514,6.514,0,0,1,1.174-.11,4.727,4.727,0,0,1,3.494,1.406,5.109,5.109,0,0,1,1.264,3.91,4.575,4.575,0,0,1-.311,1.31c-.161.444,0,.637.347.84a4.34,4.34,0,0,1,1.811,5.716.86.86,0,0,0,.252,1.251c1.587,1.331,1.969,3.179,1.134,5.494a.9.9,0,0,1-.061.138,1.763,1.763,0,0,0,.372,2.631,2.828,2.828,0,0,1,.773,2.581,40.786,40.786,0,0,1-.788,4.353,1.244,1.244,0,0,0,.274,1.282c.425.494.85,1,1.26,1.494.554.664,1.127,1.35,1.71,2.009a.8.8,0,0,1,.27.562.844.844,0,0,1-.361.538C53.852,42.07,48.5,46.7,43.039,51.431a.9.9,0,0,1-.523.281.513.513,0,0,1-.374-.2,9.641,9.641,0,0,0-4.186-2.41,25.393,25.393,0,0,1-4.189-1.849,3,3,0,0,0-1.469-.437,2.317,2.317,0,0,0-1.464.544c-1.062.847-2.079,1.787-3.063,2.7-.371.343-.755.7-1.137,1.044a1.545,1.545,0,0,0-.188.219,1.408,1.408,0,0,1-.206.234,1.185,1.185,0,0,0-.514.781,1.234,1.234,0,0,0,.426.873,2.161,2.161,0,0,1-.054,2.849c-1.353,1.642-2.517,2.976-3.661,4.2A2.237,2.237,0,0,1,20.783,61.006ZM5.872,37.814c-.266,0-.518.174-.931.641-.984,1.116-1.963,2.243-2.91,3.351a3.573,3.573,0,0,0-.342.511c-.059.1-.12.2-.192.315.079.1.152.2.222.3a3.146,3.146,0,0,0,.468.564c6.163,5.39,12.36,10.791,17.685,15.43a1.4,1.4,0,0,0,.856.452c.259,0,.505-.16.85-.552,1.077-1.226,2.033-2.319,2.922-3.341.675-.777.652-1.153-.114-1.827-.914-.8-1.848-1.616-2.75-2.4l-.008-.007-.016-.014L20.192,50l-6.454-5.625-.05-.044L6.809,38.337A1.645,1.645,0,0,0,5.872,37.814Z" transform="translate(0 0.194)" fill="#1b7695"/>
    </g>
    <path id="Fill_7" data-name="Fill 7" d="M26.246,5.823a8.523,8.523,0,0,1-1,1.288c-3.417,2.989-6.859,5.95-10.291,8.921q-4.125,3.57-8.248,7.143c-1.3,1.129-1.87,1.1-3.01-.187Q2.175,21.268.678,19.529c-.94-1.092-.92-1.654.168-2.6Q6.637,11.892,12.454,6.884q3.529-3.052,7.056-6.1C20.776-.312,21.3-.269,22.393.984c1.042,1.189,2.094,2.368,3.111,3.578a9.18,9.18,0,0,1,.742,1.261" transform="translate(42 37.379)" fill="#1b7695"/>
    <path id="Fill_9" data-name="Fill 9" d="M10.931,12.674A11.249,11.249,0,0,1,6.548,11.16,13.933,13.933,0,0,1,.291,4.687,3.552,3.552,0,0,1,2,.138c.39-.2.7-.223.942.214A10.216,10.216,0,0,0,6.359,3.779a19.189,19.189,0,0,0,5.39,2.914.19.19,0,0,1,.071.023,4.537,4.537,0,0,1,1.6,3.354,2.373,2.373,0,0,1-1.559,2.35,4.846,4.846,0,0,1-.925.254" transform="translate(12.099 14.519)" fill="#1b7695"/>
    <path id="Fill_11" data-name="Fill 11" d="M1.18,0c.295.391.48.619.646.86A16.83,16.83,0,0,0,11.1,7.647c.024.007.048.015.071.023.433.152,1.095.185,1.25.483a4.168,4.168,0,0,1,.357,1.881,2.358,2.358,0,0,1-1.98,2.621,6.272,6.272,0,0,1-2.785-.3A14.142,14.142,0,0,1,.882,6.492,5.683,5.683,0,0,1,.425,1.3,10.472,10.472,0,0,1,1.18,0" transform="translate(10.248 20.595)" fill="#1b7695"/>
    <path id="Fill_13" data-name="Fill 13" d="M4.192.1c-.225.479-.448.9-.622,1.335A2.972,2.972,0,0,0,5.038,5.317a7.3,7.3,0,0,0,4.256.6,1.234,1.234,0,0,1,1.367.652c.623,1.081,1.387,2.11.939,3.49a2.624,2.624,0,0,1-3.959,1.7,41.28,41.28,0,0,1-4.987-3.2A5.823,5.823,0,0,1,.079,2.829C.352,1.137,2.661-.411,4.192.1" transform="translate(15.375 7.717)" fill="#1b7695"/>
    <path id="Fill_15" data-name="Fill 15" d="M1.252,0a2.84,2.84,0,0,1,.412.386A16.424,16.424,0,0,0,8.18,5.8c.6.3.665.6.394,1.158A2.839,2.839,0,0,1,4.866,8.615,6.421,6.421,0,0,1,.33,4.9,4.774,4.774,0,0,1,1.252,0" transform="translate(8.7 28.029)" fill="#1b7695"/>
  </g>
</svg>
