<svg xmlns="http://www.w3.org/2000/svg" xmlns:xlink="http://www.w3.org/1999/xlink" width="56.076" height="67.442" viewBox="0 0 56.076 67.442">
  <defs>
    <clipPath id="clip-path">
      <path id="Clip_2" data-name="Clip 2" d="M0,0H56.076V67.442H0Z" transform="translate(0 0.398)" fill="none"/>
    </clipPath>
  </defs>
  <g id="Group_6_Copy_2" data-name="Group 6 Copy 2" transform="translate(0 -0.64)">
    <g id="Group_3" data-name="Group 3" transform="translate(0 0.242)">
      <path id="Clip_2-2" data-name="Clip 2" d="M0,0H56.076V67.442H0Z" transform="translate(0 0.398)" fill="none"/>
      <g id="Group_3-2" data-name="Group 3" clip-path="url(#clip-path)">
        <path id="Fill_1" data-name="Fill 1" d="M28.082,67.442a2.943,2.943,0,0,1-.706-.085,43.761,43.761,0,0,1-12.447-5.141A38.516,38.516,0,0,1,4.9,53.231,24.733,24.733,0,0,1,.152,42.744a5.687,5.687,0,0,1-.113-1.115Q.033,38.475.026,35.322C.009,27.5-.008,19.41,0,11.45v-.018C.01,8.593.01,8.593,1.761,8.556c.311-.007.663-.014,1.084-.038.912-.052,1.841-.093,2.74-.132,2.381-.105,4.843-.214,7.238-.529A21.858,21.858,0,0,0,19.594,5.8,26.86,26.86,0,0,0,25.48,1.8c.206-.182.422-.361.631-.533.312-.258.635-.526.932-.809A1.423,1.423,0,0,1,28.021,0a1.6,1.6,0,0,1,1.012.444q.4.333.793.668c.844.714,1.715,1.45,2.607,2.126a24.608,24.608,0,0,0,7.053,3.725,29.248,29.248,0,0,0,7.845,1.427c1.453.073,2.933.094,4.364.116.964.014,1.96.029,2.939.059,1.249.038,1.422.214,1.427,1.447.018,3.956.015,7.979.013,11.87v.007q0,2.121,0,4.242h-.057c0,1.489,0,3,0,4.455v.006c.005,3.422.011,6.96-.014,10.44-.024,3.381-1.138,6.662-3.505,10.327a33.608,33.608,0,0,1-7.169,7.932,41.7,41.7,0,0,1-9.157,5.515,49.065,49.065,0,0,1-5.528,1.956c-.592.183-1.2.372-1.8.566A2.525,2.525,0,0,1,28.082,67.442ZM28.048,3.614h0a1.425,1.425,0,0,0-.919.464A25.364,25.364,0,0,1,14.22,10.5a68.309,68.309,0,0,1-7.162.655c-1.043.058-2.12.119-3.176.2-.236.018-.468.029-.713.04l-.389.019c-.006.1-.012.2-.018.284v.005c-.012.178-.022.318-.021.461.008,2.719.021,5.481.034,8.153.03,6.2.06,12.621.03,18.933a19.027,19.027,0,0,0,1.06,6.414,20.766,20.766,0,0,0,3.1,5.662,34.132,34.132,0,0,0,9.077,8.3,41.545,41.545,0,0,0,11.324,4.817,2.694,2.694,0,0,0,.7.086,3.366,3.366,0,0,0,.856-.111,40.552,40.552,0,0,0,10.466-4.368,35.814,35.814,0,0,0,8.66-7.305c3.455-4,5.156-8.012,5.2-12.249.068-6.867.086-13.85.1-20.6.007-2.676.014-5.443.024-8.169a.478.478,0,0,0-.023-.125c-.005-.019-.011-.038-.015-.057l-.031-.165-.031-.165h-.113c-.579,0-1.165.006-1.731.011-.609.006-1.235.012-1.85.012-.837,0-1.53-.011-2.181-.034A30.851,30.851,0,0,1,37.562,9.3,27.758,27.758,0,0,1,29,4.1a1.492,1.492,0,0,0-.952-.485Z" transform="translate(0 0.398)" fill="#1b7695"/>
      </g>
    </g>
    <path id="Fill_4" data-name="Fill 4" d="M21.139,50.767h0a2.22,2.22,0,0,1-.532-.064,32.946,32.946,0,0,1-9.37-3.87,28.994,28.994,0,0,1-7.55-6.762A18.615,18.615,0,0,1,.114,32.175a4.22,4.22,0,0,1-.085-.839q0-2.086-.009-4.173C.007,21.085-.007,14.8,0,8.618V8.6c0-2.137,0-2.137,1.322-2.165.234,0,.5-.011.815-.029.689-.039,1.392-.07,2.071-.1,1.79-.079,3.64-.161,5.439-.4a17.879,17.879,0,0,0,9.527-4.555c.155-.137.318-.271.475-.4.235-.195.478-.4.7-.61A1.072,1.072,0,0,1,21.093,0a1.2,1.2,0,0,1,.761.335q.312.261.622.523c.627.53,1.274,1.077,1.938,1.58a18.53,18.53,0,0,0,5.309,2.8,22.018,22.018,0,0,0,5.905,1.074c1.092.055,2.2.071,3.281.087.728.011,1.479.022,2.216.045.94.029,1.071.161,1.075,1.088.014,2.967.012,5.982.01,8.9q0,1.618,0,3.236h-.042c0,1.108,0,2.234,0,3.323v.012c0,2.583.008,5.254-.011,7.882a14.258,14.258,0,0,1-2.639,7.774,25.3,25.3,0,0,1-5.4,5.971,31.379,31.379,0,0,1-6.892,4.151,37.05,37.05,0,0,1-4.17,1.475c-.442.137-.9.278-1.348.423A1.888,1.888,0,0,1,21.139,50.767ZM12.191,26a1.821,1.821,0,0,0-1.284.558l-1.9,1.9A1.9,1.9,0,0,0,8.8,28.7,1.755,1.755,0,0,0,9,30.992l7.858,7.861a3.2,3.2,0,0,0,1.061.711,2.584,2.584,0,0,0,.985.217,1.965,1.965,0,0,0,.355-.031A2.449,2.449,0,0,0,20.851,38.7c.34-.479.674-.974,1-1.453l.06-.089L34.35,18.8a1.766,1.766,0,0,0-.461-2.473l-2.274-1.545a1.716,1.716,0,0,0-.978-.312l-.088,0a1.769,1.769,0,0,0-1.427.806L18.239,31.327l-4.764-4.766A1.821,1.821,0,0,0,12.191,26Z" transform="translate(6.933 8.978)" fill="#1b7695"/>
  </g>
</svg>
