<svg xmlns="http://www.w3.org/2000/svg" xmlns:xlink="http://www.w3.org/1999/xlink" width="67.963" height="57.406" viewBox="0 0 67.963 57.406">
  <defs>
    <clipPath id="clip-path">
      <path id="Clip_2" data-name="Clip 2" d="M0,0H31.207V45.96H0Z" transform="translate(0 0.12)" fill="none"/>
    </clipPath>
    <clipPath id="clip-path-2">
      <path id="Clip_11" data-name="Clip 11" d="M0,0H31.207V45.96H0Z" transform="translate(0.468 0.12)" fill="none"/>
    </clipPath>
  </defs>
  <g id="Group_13_Copy" data-name="Group 13 Copy" transform="translate(0 0)">
    <g id="Group_3" data-name="Group 3" transform="translate(0 11.326)">
      <path id="Clip_2-2" data-name="Clip 2" d="M0,0H31.207V45.96H0Z" transform="translate(0 0.12)" fill="none"/>
      <g id="Group_3-2" data-name="Group 3" clip-path="url(#clip-path)">
        <path id="Fill_1" data-name="Fill 1" d="M28.246,23.168c-2.4,1.791-5.011,8.723-6.064,9.423-.25.181-.764.374-.9.26a1.444,1.444,0,0,1-.424-.988c-.026-4.506-.017-9.012-.017-13.518h.007q0-6.759,0-13.518A1.962,1.962,0,0,0,19.112,2.7a1.975,1.975,0,0,0-2.35,1.526,4.144,4.144,0,0,0-.151,1.152q-.017,6.69-.012,13.379c0,.479.078,1.114-.6,1.094-.629-.018-.608-.626-.608-1.123q0-8.069-.012-16.138A2.8,2.8,0,0,0,15.291,1.5,2.937,2.937,0,0,0,14.425.274a2.31,2.31,0,0,0-2.9.629,3.209,3.209,0,0,0-.4,1.564c-.028,5.379-.017,10.759-.019,16.138a1.422,1.422,0,0,1-.037.611c-.11.21-.363.524-.5.5a.88.88,0,0,1-.587-.5,3.773,3.773,0,0,1-.052-1.095c0-4.092,0-8.184-.007-12.276A2.077,2.077,0,0,0,8.559,3.734a2.129,2.129,0,0,0-2.476.708,3.137,3.137,0,0,0-.422,1.613c-.033,4.482-.019,8.965-.023,13.448a1.747,1.747,0,0,1-.067.745.921.921,0,0,1-.564.482c-.151.021-.414-.255-.506-.454a1.865,1.865,0,0,1-.073-.745c0-3.15,0-6.3-.007-9.449A1.941,1.941,0,0,0,3.272,8.131a1.977,1.977,0,0,0-2.945,1.9c-.038,1.4-.024,2.8-.046,4.206C.187,20.4.068,26.556,0,32.716a16.6,16.6,0,0,0,1.436,7.031,9.45,9.45,0,0,0,6.9,5.88,15.1,15.1,0,0,0,13.513-3.673c3.071-2.73,6.963-11.915,8.852-15.3a2.414,2.414,0,0,0,.05-2.887,1.8,1.8,0,0,0-2.507-.6" transform="translate(0 0.12)" fill="#1b7695"/>
      </g>
    </g>
    <path id="Fill_4" data-name="Fill 4" d="M5.718,11.66a2.52,2.52,0,0,0,.862.77c.044.027.084.051.115.073l.214.166.272.007h.064A2.113,2.113,0,0,0,9.1,11.67a1.851,1.851,0,0,0,.014-1.894C8.705,9.067,8.266,8.37,7.84,7.7Q7.6,7.32,7.368,6.944l-.605-.972Q5.247,3.539,3.724,1.11a1.935,1.935,0,0,0-2.4-.995A1.9,1.9,0,0,0,.105,1.261,2.009,2.009,0,0,0,.342,3.006C2.383,6.338,4.091,9.088,5.718,11.66" transform="translate(21.576 2.768)" fill="#1b7695"/>
    <path id="Fill_6" data-name="Fill 6" d="M2.126,12.675h.041l.28-.01.217-.165c.035-.026.081-.052.131-.084a2.648,2.648,0,0,0,.89-.8C5.521,8.724,7.3,5.844,8.957,3.144A1.885,1.885,0,0,0,8.466.329,1.938,1.938,0,0,0,5.651,1.1Q4.331,3.2,3.024,5.3l-.66,1.057C1.67,7.468.953,8.614.27,9.761a1.849,1.849,0,0,0-.017,1.9,2.112,2.112,0,0,0,1.873,1.018" transform="translate(39.259 2.771)" fill="#1b7695"/>
    <path id="Fill_8" data-name="Fill 8" d="M3.915,8.615V5.737q0-1.748,0-3.5A2.352,2.352,0,0,0,3.274.515,1.831,1.831,0,0,0,1.922,0,2.023,2.023,0,0,0,0,2.22Q0,7.14,0,12.061a2.207,2.207,0,0,0,.6,1.61,1.9,1.9,0,0,0,1.372.538h.017a1.934,1.934,0,0,0,1.921-2.124q.006-1.735,0-3.47" transform="translate(33.14 0)" fill="#1b7695"/>
    <g id="Group_12" data-name="Group 12" transform="translate(36.288 11.326)">
      <path id="Clip_11-2" data-name="Clip 11" d="M0,0H31.207V45.96H0Z" transform="translate(0.468 0.12)" fill="none"/>
      <g id="Group_12-2" data-name="Group 12" clip-path="url(#clip-path-2)">
        <path id="Fill_10" data-name="Fill 10" d="M30.926,14.238c-.021-1.4-.008-2.8-.046-4.207a1.977,1.977,0,0,0-2.945-1.9,1.942,1.942,0,0,0-1.148,1.952c-.007,3.15,0,6.3-.007,9.448a1.844,1.844,0,0,1-.073.745c-.092.2-.355.476-.506.455a.925.925,0,0,1-.565-.482,1.745,1.745,0,0,1-.066-.744c0-4.483.01-8.966-.024-13.448a3.13,3.13,0,0,0-.422-1.613,2.128,2.128,0,0,0-2.475-.709A2.077,2.077,0,0,0,21.287,5.84c-.01,4.092,0,8.184-.007,12.276a3.814,3.814,0,0,1-.052,1.095.88.88,0,0,1-.587.5c-.14.025-.393-.289-.5-.5a1.422,1.422,0,0,1-.037-.611c0-5.38.009-10.759-.018-16.138A3.213,3.213,0,0,0,19.684.9a2.31,2.31,0,0,0-2.9-.629A2.938,2.938,0,0,0,15.916,1.5a2.813,2.813,0,0,0-.087,1.089q-.011,8.069-.012,16.138c0,.5.021,1.1-.608,1.123-.68.02-.6-.615-.6-1.094q0-6.69-.012-13.38a4.193,4.193,0,0,0-.151-1.152A1.975,1.975,0,0,0,12.095,2.7a1.963,1.963,0,0,0-1.735,2.127q-.01,6.759,0,13.518h.007c0,4.506.009,9.012-.018,13.518a1.445,1.445,0,0,1-.423.989c-.133.114-.647-.079-.9-.26-1.053-.7-3.666-7.633-6.064-9.423a1.8,1.8,0,0,0-2.507.6A2.416,2.416,0,0,0,.5,26.654c1.889,3.385,5.782,12.57,8.852,15.3a15.1,15.1,0,0,0,13.513,3.672,9.448,9.448,0,0,0,6.9-5.88,16.616,16.616,0,0,0,1.436-7.031c-.067-6.159-.186-12.318-.281-18.478" transform="translate(0.468 0.12)" fill="#1b7695"/>
      </g>
    </g>
  </g>
</svg>
