<svg xmlns="http://www.w3.org/2000/svg" width="70.318" height="79.816" viewBox="0 0 70.318 79.816">
  <g id="Group_27_Copy" data-name="Group 27 Copy" transform="translate(0.033 0.771)">
    <path id="Fill_1" data-name="Fill 1" d="M.091,12.076a.813.813,0,0,1,.183-.987c1.1-.916,2.2-1.825,3.318-2.716a.79.79,0,0,1,1.154.183c.351.418.695.842,1.061,1.288L8.29,7.8c1.841-1.519,3.672-3.049,5.526-4.552a7.033,7.033,0,0,1,5.427-1.6c1.2.145,2.382.485,3.571.741Q30.582,4.062,38.35,5.737c.655.141,1.313.275,1.962.438A4.632,4.632,0,0,1,43.8,10.836a4.573,4.573,0,0,1-3.949,4.3,7.927,7.927,0,0,1-2.547-.21c-3.013-.5-6.023-1.018-9.033-1.53-.2-.033-.393-.06-.587-.1a.833.833,0,0,1-.7-.907.777.777,0,0,1,.924-.706c.873.119,1.74.278,2.609.425,2.755.464,5.506.947,8.264,1.388A2.92,2.92,0,0,0,42.1,11.142a2.982,2.982,0,0,0-2.313-3.405Q31.275,5.9,22.757,4.071c-1.056-.227-2.112-.448-3.166-.684a5.264,5.264,0,0,0-4.6,1.051C12.755,6.214,10.572,8.062,8.366,9.88c-.5.409-.991.821-1.506,1.248l8.325,10.134c.305-.249.6-.467.873-.716a5.063,5.063,0,0,1,4.724-1.236c3.666.721,7.349,1.35,11.025,2.016,1.955.354,3.911.695,5.862,1.064a2.8,2.8,0,0,0,2.4-.623q4.2-3.426,8.4-6.861,4.85-3.962,9.7-7.927a2.857,2.857,0,0,0,1.064-3.023,2.969,2.969,0,0,0-4.745-1.644q-3.278,2.646-6.551,5.3c-.068.055-.134.112-.2.164A.829.829,0,0,1,46.515,7.7a.842.842,0,0,1,.19-1.214c1.079-.88,2.163-1.753,3.244-2.629q1.724-1.4,3.447-2.794a4.607,4.607,0,0,1,7.456,2.57,4.382,4.382,0,0,1-1.584,4.572C56.1,10.83,52.9,13.419,49.717,16.023c-2.811,2.3-5.629,4.582-8.428,6.892a4.822,4.822,0,0,1-4.2,1.056c-3.939-.746-7.889-1.435-11.835-2.148-1.8-.325-3.592-.645-5.386-.98a2.6,2.6,0,0,0-1.991.4c-.564.38-1.075.837-1.639,1.284.359.442.7.851,1.027,1.265a.859.859,0,0,1-.15,1.381q-1.369,1.123-2.733,2.254c-.076.063-.152.128-.234.185a.827.827,0,0,1-1.165-.145C12.713,27.125.256,12.4.091,12.076" transform="translate(0.383 50.818)" fill="#249ec6"/>
    <path id="Stroke_3" data-name="Stroke 3" d="M.091,12.076a.813.813,0,0,1,.183-.987c1.1-.916,2.2-1.825,3.318-2.716a.79.79,0,0,1,1.154.183c.351.418.695.842,1.061,1.288L8.29,7.8c1.841-1.519,3.672-3.049,5.526-4.552a7.033,7.033,0,0,1,5.427-1.6c1.2.145,2.382.485,3.571.741Q30.582,4.062,38.35,5.737c.655.141,1.313.275,1.962.438A4.632,4.632,0,0,1,43.8,10.836a4.573,4.573,0,0,1-3.949,4.3,7.927,7.927,0,0,1-2.547-.21c-3.013-.5-6.023-1.018-9.033-1.53-.2-.033-.393-.06-.587-.1a.833.833,0,0,1-.7-.907.777.777,0,0,1,.924-.706c.873.119,1.74.278,2.609.425,2.755.464,5.506.947,8.264,1.388A2.92,2.92,0,0,0,42.1,11.142a2.982,2.982,0,0,0-2.313-3.405Q31.275,5.9,22.757,4.071c-1.056-.227-2.112-.448-3.166-.684a5.264,5.264,0,0,0-4.6,1.051C12.755,6.214,10.572,8.062,8.366,9.88c-.5.409-.991.821-1.506,1.248l8.325,10.134c.305-.249.6-.467.873-.716a5.063,5.063,0,0,1,4.724-1.236c3.666.721,7.349,1.35,11.025,2.016,1.955.354,3.911.695,5.862,1.064a2.8,2.8,0,0,0,2.4-.623q4.2-3.426,8.4-6.861,4.85-3.962,9.7-7.927a2.857,2.857,0,0,0,1.064-3.023,2.969,2.969,0,0,0-4.745-1.644q-3.278,2.646-6.551,5.3c-.068.055-.134.112-.2.164A.829.829,0,0,1,46.515,7.7a.842.842,0,0,1,.19-1.214c1.079-.88,2.163-1.753,3.244-2.629q1.724-1.4,3.447-2.794a4.607,4.607,0,0,1,7.456,2.57,4.382,4.382,0,0,1-1.584,4.572C56.1,10.83,52.9,13.419,49.717,16.023c-2.811,2.3-5.629,4.582-8.428,6.892a4.822,4.822,0,0,1-4.2,1.056c-3.939-.746-7.889-1.435-11.835-2.148-1.8-.325-3.592-.645-5.386-.98a2.6,2.6,0,0,0-1.991.4c-.564.38-1.075.837-1.639,1.284.359.442.7.851,1.027,1.265a.859.859,0,0,1-.15,1.381q-1.369,1.123-2.733,2.254c-.076.063-.152.128-.234.185a.827.827,0,0,1-1.165-.145C12.713,27.125.256,12.4.091,12.076Z" transform="translate(0.383 50.818)" fill="#1b7695" stroke="#1b7695" stroke-miterlimit="10" stroke-width="0.765"/>
    <path id="Fill_5" data-name="Fill 5" d="M33.254,21.626q0,5.315,0,10.63c0,.732-.284,1.017-1.013,1.017H10.976c-.726,0-1.02-.291-1.021-1.014,0-1.741.008-3.482-.011-5.222a.926.926,0,0,0-.241-.61c-.216-.2-.459-.021-.673.115A5.848,5.848,0,0,1,.091,22.57,5.536,5.536,0,0,1,2.547,16.8a5.663,5.663,0,0,1,6.3-.236c.271.148.515.453.874.234s.228-.577.23-.885c.009-1.641,0-3.283,0-4.924,0-.757.276-1.034,1.03-1.035,1.729,0,3.457.008,5.186-.01.21,0,.53-.09.6-.233a.838.838,0,0,0-.1-.67,5.864,5.864,0,1,1,10.783-2.8,6.034,6.034,0,0,1-.907,2.806.882.882,0,0,0-.1.675c.05.131.368.22.567.221,1.7.017,3.407.01,5.11.01.912,0,1.134.226,1.134,1.151V21.626" transform="translate(16.252 14.381)" fill="#1b7695"/>
    <path id="Fill_7" data-name="Fill 7" d="M1.016,5.853a1.1,1.1,0,0,1-.91-.608A.9.9,0,0,1,.271,4.176c.463-.485.945-.952,1.418-1.427Q2.875,1.564,4.061.379A.986.986,0,0,1,5.512.27a.969.969,0,0,1-.071,1.45C4.208,2.964,2.974,4.207,1.723,5.432a3.418,3.418,0,0,1-.708.421" transform="translate(54.438 9.3)" fill="#249ec6"/>
    <path id="Stroke_9" data-name="Stroke 9" d="M1.016,5.853a1.1,1.1,0,0,1-.91-.608A.9.9,0,0,1,.271,4.176c.463-.485.945-.952,1.418-1.427Q2.875,1.564,4.061.379A.986.986,0,0,1,5.512.27a.969.969,0,0,1-.071,1.45C4.208,2.964,2.974,4.207,1.723,5.432A3.418,3.418,0,0,1,1.016,5.853Z" transform="translate(54.438 9.3)" fill="#1b7695" stroke="#1b7695" stroke-miterlimit="10" stroke-width="1.53"/>
    <path id="Fill_11" data-name="Fill 11" d="M0,1A1.083,1.083,0,0,1,.545.13a.922.922,0,0,1,.989.029,1.927,1.927,0,0,1,.311.265c1.2,1.2,2.41,2.4,3.6,3.612a1.445,1.445,0,0,1,.362.588.909.909,0,0,1-.446,1.05.994.994,0,0,1-1.193-.2C3.289,4.6,2.414,3.721,1.536,2.843,1.15,2.457.747,2.086.385,1.678A3.549,3.549,0,0,1,0,1" transform="translate(13.394 9.294)" fill="#249ec6"/>
    <path id="Stroke_13" data-name="Stroke 13" d="M0,1A1.083,1.083,0,0,1,.545.13a.922.922,0,0,1,.989.029,1.927,1.927,0,0,1,.311.265c1.2,1.2,2.41,2.4,3.6,3.612a1.445,1.445,0,0,1,.362.588.909.909,0,0,1-.446,1.05.994.994,0,0,1-1.193-.2C3.289,4.6,2.414,3.721,1.536,2.843,1.15,2.457.747,2.086.385,1.678A3.549,3.549,0,0,1,0,1Z" transform="translate(13.394 9.294)" fill="#1b7695" stroke="#1b7695" stroke-miterlimit="10" stroke-width="1.53"/>
    <path id="Fill_15" data-name="Fill 15" d="M3.677,1.92c-.869,0-1.739,0-2.608,0A.962.962,0,1,1,1.048,0Q3.711,0,6.376,0A.94.94,0,0,1,7.392.993a.927.927,0,0,1-1.033.924c-.894,0-1.789,0-2.683,0Z" transform="translate(4.152 31.721)" fill="#249ec6"/>
    <path id="Stroke_17" data-name="Stroke 17" d="M3.677,1.92c-.869,0-1.739,0-2.608,0A.962.962,0,1,1,1.048,0Q3.711,0,6.376,0A.94.94,0,0,1,7.392.993a.927.927,0,0,1-1.033.924c-.894,0-1.789,0-2.683,0Z" transform="translate(4.152 31.721)" fill="#1b7695" stroke="#1b7695" stroke-miterlimit="10" stroke-width="1.53"/>
    <path id="Fill_19" data-name="Fill 19" d="M3.689,1.917c-.882,0-1.763,0-2.645,0A.939.939,0,0,1,0,.96.962.962,0,0,1,1.054,0Q3.7,0,6.345,0A.943.943,0,0,1,7.381.969a.934.934,0,0,1-1.047.947c-.882,0-1.763,0-2.645,0" transform="translate(62.138 31.722)" fill="#249ec6"/>
    <path id="Stroke_21" data-name="Stroke 21" d="M3.689,1.917c-.882,0-1.763,0-2.645,0A.939.939,0,0,1,0,.96.962.962,0,0,1,1.054,0Q3.7,0,6.345,0A.943.943,0,0,1,7.381.969a.934.934,0,0,1-1.047.947C5.452,1.92,4.571,1.917,3.689,1.917Z" transform="translate(62.138 31.722)" fill="#1b7695" stroke="#1b7695" stroke-miterlimit="10" stroke-width="1.53"/>
    <path id="Fill_23" data-name="Fill 23" d="M1.921,3.727c0,.881,0,1.763,0,2.645A.933.933,0,0,1,.987,7.4a.943.943,0,0,1-.978-1C-.007,5.879,0,5.358,0,4.836,0,3.581,0,2.327.007,1.074A.977.977,0,0,1,1.181.026.927.927,0,0,1,1.919.97c0,.919,0,1.838,0,2.756" transform="translate(35.872 0)" fill="#249ec6"/>
    <path id="Stroke_25" data-name="Stroke 25" d="M1.921,3.727c0,.881,0,1.763,0,2.645A.933.933,0,0,1,.987,7.4a.943.943,0,0,1-.978-1C-.007,5.879,0,5.358,0,4.836,0,3.581,0,2.327.007,1.074A.977.977,0,0,1,1.181.026.927.927,0,0,1,1.919.97C1.924,1.889,1.921,2.808,1.921,3.727Z" transform="translate(35.872 0)" fill="#1b7695" stroke="#1b7695" stroke-miterlimit="10" stroke-width="1.53"/>
  </g>
</svg>
